<svg width="980" height="520" viewBox="0 0 980 520" role="img" aria-labelledby="title desc">
  <title id="title">VibeBench artifact evidence stack</title>
  <desc id="desc">AI-assisted code changes become inspectable, auditable evidence through VibeBench artifacts.</desc>
  <rect width="980" height="520" fill="#f8fafc"/>
  <rect x="36" y="32" width="908" height="456" rx="18" fill="#ffffff" stroke="#cbd5e1" stroke-width="2"/>
  <text x="490" y="76" text-anchor="middle" font-family="Arial, sans-serif" font-size="28" font-weight="700" fill="#0f172a">Artifact Evidence Stack</text>
  <text x="490" y="106" text-anchor="middle" font-family="Arial, sans-serif" font-size="16" fill="#475569">AI-assisted code changes become inspectable, auditable evidence.</text>

  <g font-family="Arial, sans-serif" font-size="17" font-weight="700">
    <rect x="250" y="142" width="480" height="42" rx="8" fill="#e0f2fe" stroke="#0284c7" stroke-width="2"/>
    <text x="490" y="169" text-anchor="middle" fill="#0f172a">ci-summary.md</text>

    <rect x="228" y="194" width="524" height="42" rx="8" fill="#dcfce7" stroke="#16a34a" stroke-width="2"/>
    <text x="490" y="221" text-anchor="middle" fill="#0f172a">ci-plan.json</text>

    <rect x="206" y="246" width="568" height="42" rx="8" fill="#fef9c3" stroke="#ca8a04" stroke-width="2"/>
    <text x="490" y="273" text-anchor="middle" fill="#0f172a">artifact-inventory.json</text>

    <rect x="184" y="298" width="612" height="42" rx="8" fill="#ede9fe" stroke="#7c3aed" stroke-width="2"/>
    <text x="490" y="325" text-anchor="middle" fill="#0f172a">compare-summary.md</text>

    <rect x="162" y="350" width="656" height="42" rx="8" fill="#fee2e2" stroke="#dc2626" stroke-width="2"/>
    <text x="490" y="377" text-anchor="middle" fill="#0f172a">manifest.json</text>

    <rect x="140" y="402" width="700" height="42" rx="8" fill="#f1f5f9" stroke="#64748b" stroke-width="2"/>
    <text x="490" y="429" text-anchor="middle" fill="#0f172a">release-audit.zip</text>

    <rect x="118" y="454" width="744" height="42" rx="8" fill="#ecfccb" stroke="#65a30d" stroke-width="2"/>
    <text x="490" y="481" text-anchor="middle" fill="#0f172a">release-body.md</text>
  </g>

  <g font-family="Arial, sans-serif" font-size="14" fill="#475569">
    <text x="88" y="174">review</text>
    <text x="88" y="226">plan</text>
    <text x="88" y="278">inventory</text>
    <text x="88" y="330">compare</text>
    <text x="88" y="382">manifest</text>
    <text x="88" y="434">audit</text>
    <text x="88" y="486">release</text>
  </g>
</svg>
